<svg xmlns="http://www.w3.org/2000/svg" fill="none" viewBox="0 0 14 14" width="24px" height="24px">
  <g id="heart--reward-social-rating-media-heart-it-like-favorite-love">
    <path id="Union" fill="#fd0f04" fill-rule="evenodd" d="M13.75 4.941c-.023-1.582-.92-3.14-2.297-3.782a3.199 3.199 0 0 0-2.36-.139c-.705.224-1.412.683-2.093 1.405-.681-.722-1.388-1.18-2.093-1.405a3.199 3.199 0 0 0-2.36.139C1.17 1.801.273 3.359.25 4.941v.008c0 2.307 1.372 4.351 2.826 5.786a12.326 12.326 0 0 0 2.183 1.726c.338.205.657.37.94.486.271.11.553.194.801.194s.53-.084.8-.194c.284-.115.603-.28.94-.486a12.328 12.328 0 0 0 2.184-1.726C12.378 9.3 13.75 7.256 13.75 4.95l0-.008Z" clip-rule="evenodd"></path>
  </g>
</svg>