<svg xmlns="http://www.w3.org/2000/svg" viewBox="0 0 1000 1000" version="1.1">
	<path d="M 78.195 84.067 C 71.794 85.327, 65.230 88.943, 60.167 93.998 C 47.756 106.389, 46.501 127.243, 57.343 140.943 C 61.245 145.874, 68.979 151.564, 73.930 153.146 C 76.044 153.822, 89.736 154.563, 107.500 154.962 C 141.828 155.734, 147.386 156.678, 163.553 164.483 C 185.695 175.171, 204.391 195.610, 212.396 217.876 C 216.109 228.203, 215.421 224.411, 230.919 320 C 271.278 568.925, 282.110 634.359, 284.413 643.151 C 290.135 664.990, 299.911 684.550, 314.801 703.952 C 318.780 709.137, 320.811 712.563, 320.056 712.815 C 316.977 713.841, 302.538 725.697, 296.965 731.775 C 246.099 787.255, 263.198 874.355, 331.266 906.503 C 358.189 919.219, 389.032 920.111, 417.826 909.007 C 429.688 904.433, 442.378 896.411, 451.765 887.553 C 469.792 870.542, 480.332 852.096, 485.116 829.185 C 488.551 812.739, 487.354 787.757, 482.468 773.910 C 481.661 771.621, 481 769.355, 481 768.874 C 481 768.380, 531.884 768, 598 768 C 662.350 768, 714.994 768.112, 714.987 768.250 C 714.980 768.388, 714.070 771.383, 712.966 774.907 C 704.684 801.330, 707.217 830.638, 719.995 856.215 C 734.921 886.094, 762.187 906.986, 796.275 914.666 C 806.033 916.864, 828.762 916.893, 839.500 914.720 C 878.975 906.734, 911.204 877.793, 923.293 839.476 C 930.977 815.120, 929.119 784.276, 918.594 761.498 C 903.330 728.459, 873.599 705.312, 837.674 698.498 C 830.634 697.162, 805.664 696.974, 637.834 696.992 C 506.724 697.007, 442.968 696.671, 436.331 695.931 C 414.791 693.529, 396.283 684.827, 380.127 669.504 C 368.448 658.428, 360.197 645.358, 355.091 629.846 C 353.174 624.023, 343.585 570.082, 344.333 569.334 C 344.489 569.178, 349.991 571.681, 356.558 574.896 C 379.475 586.115, 396.779 590.691, 430.500 594.448 C 481.611 600.143, 517.781 602.043, 575 602.036 C 633.103 602.029, 669.853 600.049, 715.876 594.446 C 782.148 586.377, 806.528 579.559, 833.477 561.557 C 864.666 540.723, 882.863 517.166, 897.979 478.053 C 922.574 414.418, 937.819 352.839, 945.528 286 C 949.447 252.017, 946.035 232.826, 932.296 211.575 C 926.147 202.063, 921.394 196.786, 911.725 188.736 C 901.767 180.446, 887.183 173.011, 873.500 169.249 L 863.500 166.500 565 166.232 L 266.500 165.964 264.339 162.189 C 257.148 149.625, 240.001 130.437, 226.500 119.847 C 199.727 98.845, 169.842 87.030, 135.887 84.025 C 122.395 82.831, 84.332 82.858, 78.195 84.067 M 291 239.329 C 291 240.780, 317.371 404.051, 319.051 413 C 325.946 449.738, 344 479.899, 371.471 500.576 C 382.757 509.070, 399.885 516.840, 414.208 519.963 C 416.798 520.528, 426.923 521.912, 436.708 523.038 C 542.706 535.242, 666.806 532.653, 752.724 516.446 C 774.694 512.301, 784.947 508.399, 797.652 499.347 C 805.111 494.033, 814.647 484.011, 819.640 476.238 C 832.591 456.076, 854.631 388.396, 864.981 337 C 870.990 307.162, 876.692 264.472, 875.442 258.679 C 874.292 253.350, 871.278 248.394, 866.918 244.662 C 858.445 237.410, 884.555 238, 572.322 238 C 338.966 238, 291 238.227, 291 239.329 M 370.650 769.002 C 346.040 773.369, 331.835 801.707, 343.055 824.052 C 350.980 839.836, 370.584 848.425, 387.550 843.548 C 399.209 840.196, 407.002 833.450, 412.386 822.047 C 415.113 816.274, 415.471 814.495, 415.416 807 C 415.327 794.853, 412.650 788.458, 404.091 779.940 C 399.040 774.914, 396.098 772.874, 391.500 771.213 C 384.258 768.596, 377.173 767.845, 370.650 769.002 M 811.871 768.998 C 797.685 771.455, 785.458 782.290, 781.401 796 C 779.077 803.850, 779.857 814.824, 783.267 822.272 C 793.460 844.535, 821.440 851.858, 841.119 837.413 C 864.175 820.488, 860.335 784.037, 834.253 772.246 C 826.844 768.896, 819.016 767.761, 811.871 768.998" stroke="none" fill="#000" fill-rule="evenodd"></path>
</svg>